<svg xmlns="http://www.w3.org/2000/svg" version="1.1" viewBox="0 0 600 600"><path d="M180.41958538135373 465.73425303639215C163.46154196501257 465.03495290618383 148.60139639616492 458.0419566903635 134.26573101123654 452.09790049732965C119.93006562630816 446.1538443042958 105.94405412118121 441.6083781991526 94.40559307178341 430.069915878189C82.86713202238562 418.53145355722546 68.70629294157507 399.9999899341786 65.03496471484982 382.8671265715484C61.363636488124556 365.7342632089182 68.35664414803668 344.5804291838531 72.37762371143185 327.2727357024078C76.39860327482702 309.96504222096246 75.52447938363238 289.33565277597546 89.16084209522091 279.0209656828765C102.79720480680945 268.7062785897776 136.18880636930945 270.8041916960601 154.1957999809631 265.384613143814C172.20279359261676 259.9650345915679 187.4125943128316 256.81817891936737 197.2028037651428 246.50349436939996C206.993013217454 236.18880981943252 211.18880636930948 218.70629639169815 212.9370566948303 203.49650584400933C214.6853070203511 188.28671529632052 204.5454500460673 171.85314316293838 207.6923057182678 155.24475108326715C210.8391613904683 138.6363590035959 219.58042827686154 114.16083791594944 231.81819072803341 103.84615336598199C244.0559531792053 93.53146881601454 264.1608420952209 94.40559525034071 281.11888042529904 93.35664378346246C298.07691875537716 92.30769231658421 314.86012696664017 94.05594137053929 333.56642070850216 97.55244456471246C352.27271445036416 101.04894775888563 378.32167481820267 99.99999756357313 393.3566428764709 114.33566294850152C408.39161093473916 128.67132833342993 419.4055981580464 162.5874151661122 423.77622905811154 183.56643687428277C428.14685995817666 204.54545858245334 424.3007092420308 217.83217377206924 419.58042827686154 240.20979319752496C414.8601473116923 262.5874126229807 407.16783062061154 295.10488139332574 395.4545432670959 317.83215342701715C383.7412559135803 340.55942546070855 365.5594423556376 358.9160818531239 349.3007041557678 376.5734253996734C333.041965955898 394.2307689462229 316.7832328422912 410.48950205982965 297.90211406787716 423.776214706314C279.0209952934631 437.0629273527984 255.59441295703732 449.3006948902333 236.01399150928341 456.29370127857965C216.4335700615295 463.286707666926 197.37762879769485 466.43355316660046 180.41958538135373 465.73425303639215C163.46154196501257 465.03495290618383 148.60139639616492 458.0419566903635 134.26573101123654 452.09790049732965 " fill="#8dff78"></path><path d="M245.41726660524466 496.34536232876326C228.45922318890348 495.646062198555 213.59907762005582 488.6530659827347 199.26341223512748 482.70900978970076C184.92774685019913 476.76495359666694 170.94173534507215 472.21948749152375 159.40327429567435 460.68102517056013C147.86481324627655 449.14256284959663 133.703974165466 430.61109922654975 130.03264593874076 413.4782358639195C126.36131771201548 396.3453725012894 133.35432537192762 375.1915384762242 137.3753049353228 357.8838449947789C141.39628449871796 340.57615151333357 140.52216060752332 319.94676206834663 154.15852331911185 309.63207497524763C167.79488603070038 299.31738788214875 201.18648759320035 301.4153009884312 219.19348120485404 295.99572243618513C237.20047481650772 290.57614388393904 252.41027553672257 287.4292882117385 262.2004849890337 277.11460366177107C271.99069444134494 266.79991911180366 276.1864875932004 249.31740568406937 277.9347379187212 234.1076151363806C279.68298824424204 218.89782458869178 269.5431312699582 202.46425245530963 272.6899869421587 185.8558603756384C275.8368426143592 169.24746829596717 284.5781095007525 144.7719472083207 296.81587195192435 134.45726265835324C309.0536344030962 124.1425781083858 329.15852331911185 125.01670454271198 346.11656164919 123.96775307583371C363.0745999792681 122.91880160895545 379.8578081905311 124.66705066291053 398.5641019323931 128.1635538570837C417.2703956742551 131.66005705125687 443.31935604209355 130.61110685594437 458.35432410036185 144.94677224087278C473.38929215863016 159.28243762580118 484.4032793819374 193.19852445848346 488.7739102820025 214.17754616665403C493.14454118206754 235.1565678748246 489.2983904659218 248.44328306444038 484.5781095007525 270.82090248989607C479.85782853558317 293.1985219153519 472.1655118445025 325.71599068569685 460.45222449098685 348.44326271938826C448.7389371374712 371.17053475307966 430.55712357952854 389.52719114549507 414.2983853796587 407.1845346920445C398.0396471797889 424.84187823859406 381.78091406618216 441.10061135220076 362.8997952917681 454.38732399868513C344.01867651735404 467.6740366451695 320.59209418092826 479.91180418260444 301.01167273317435 486.90481057095076C281.43125128542044 493.8978169592972 262.3753100215858 497.04466245897163 245.41726660524466 496.34536232876326C228.45922318890348 495.646062198555 213.59907762005582 488.6530659827347 199.26341223512748 482.70900978970076 " fill-opacity="1" fill="#8dff78" opacity="1" stroke-opacity="1" stroke-width="2" stroke="#071c21" transform="matrix(0.9396926207859084,0.3420201433256687,-0.3420201433256687,0.9396926207859084,108.59221719717686,-64.81013063158144)"></path></svg>